<?xml version="1.0" standalone="no"?>
<!DOCTYPE svg PUBLIC "-//W3C//DTD SVG 20010904//EN"
 "http://www.w3.org/TR/2001/REC-SVG-20010904/DTD/svg10.dtd">
<svg version="1.0" xmlns="http://www.w3.org/2000/svg"
 width="1000.000000pt" height="1000.000000pt" viewBox="0 0 1000.000000 1000.000000"
 preserveAspectRatio="xMidYMid meet">
<metadata>
Created by potrace 1.14, written by Peter Selinger 2001-2017
</metadata>
<g transform="translate(0.000000,1000.000000) scale(0.100000,-0.100000)"
fill="#000000" stroke="none">
<path d="M5716 7111 l-129 -290 -231 -103 c-127 -57 -259 -117 -294 -133 l-64
-30 293 -131 294 -131 130 -291 c72 -160 133 -288 137 -284 4 4 65 135 136
290 l128 283 290 131 c159 71 290 131 292 133 1 1 -129 62 -290 134 l-293 133
-130 289 c-71 158 -132 289 -135 289 -3 0 -64 -130 -134 -289z"/>
<path d="M2525 6270 l-70 -280 -35 -10 c-19 -5 -138 -35 -265 -66 -126 -31
-233 -60 -237 -63 -4 -4 115 -37 265 -74 l273 -68 69 -280 70 -280 68 273 c38
150 72 277 77 281 4 5 129 39 276 77 148 37 262 70 254 73 -8 4 -131 35 -273
71 -142 35 -260 66 -261 67 -2 2 -34 129 -72 282 l-69 278 -70 -281z"/>
<path d="M7401 5974 c-174 -47 -330 -193 -391 -367 -25 -71 -38 -232 -23 -287
l10 -35 -495 -499 -495 -499 -159 0 -160 0 -353 353 c-349 349 -353 353 -344
384 14 48 10 195 -6 256 -27 101 -74 180 -154 261 -121 121 -224 164 -396 164
-172 0 -286 -48 -403 -169 -133 -136 -184 -296 -159 -492 l8 -60 -644 -637
-644 -636 -39 9 c-156 37 -360 -27 -491 -153 -121 -116 -173 -236 -173 -400 0
-169 48 -285 166 -404 82 -83 174 -134 289 -158 89 -19 128 -19 222 1 261 54
454 290 453 555 0 41 -4 90 -9 110 l-8 37 641 641 641 641 76 -10 c52 -7 97
-7 149 0 l74 11 358 -358 c249 -249 356 -363 352 -373 -3 -8 -8 -53 -11 -100
-10 -165 49 -314 171 -436 222 -221 570 -221 792 1 134 134 197 323 164 496
l-10 54 496 496 496 496 117 -5 c92 -4 130 -1 177 13 200 57 360 215 409 400
24 93 20 229 -10 323 -57 182 -213 328 -402 377 -71 19 -211 18 -282 -1z"/>
</g>
</svg>
